<?xml version="1.0" encoding="UTF-8" standalone="no"?>
<svg width="456" height="456" viewBox="0 0 456 456" xmlns="http://www.w3.org/2000/svg">
    <!-- Brain outline - left hemisphere -->
    <path d="M228 120 C180 120, 140 160, 140 210 C140 240, 150 260, 165 275 C155 290, 150 310, 155 330 C160 355, 185 370, 210 370 C220 370, 228 365, 228 365"
          fill="none" stroke="white" stroke-width="12" stroke-linecap="round"/>
    <!-- Brain outline - right hemisphere -->
    <path d="M228 120 C276 120, 316 160, 316 210 C316 240, 306 260, 291 275 C301 290, 306 310, 301 330 C296 355, 271 370, 246 370 C236 370, 228 365, 228 365"
          fill="none" stroke="white" stroke-width="12" stroke-linecap="round"/>
    <!-- Neural connection dots -->
    <circle cx="180" cy="200" r="10" fill="white"/>
    <circle cx="276" cy="200" r="10" fill="white"/>
    <circle cx="200" cy="260" r="8" fill="white"/>
    <circle cx="256" cy="260" r="8" fill="white"/>
    <circle cx="228" cy="310" r="8" fill="white"/>
    <!-- Neural connections -->
    <line x1="180" y1="200" x2="200" y2="260" stroke="white" stroke-width="3" opacity="0.6"/>
    <line x1="276" y1="200" x2="256" y2="260" stroke="white" stroke-width="3" opacity="0.6"/>
    <line x1="200" y1="260" x2="228" y2="310" stroke="white" stroke-width="3" opacity="0.6"/>
    <line x1="256" y1="260" x2="228" y2="310" stroke="white" stroke-width="3" opacity="0.6"/>
    <line x1="180" y1="200" x2="276" y2="200" stroke="white" stroke-width="3" opacity="0.4"/>
</svg>